#tb 0: 1/44100
#media_type 0: audio
#codec_id 0: ac3
#sample_rate 0: 44100
#channel_layout_name 0: 5.1
0,       -256,       -256,     1536,     1114, 0x89963331
0,       1280,       1280,     1536,     1116, 0x9eda26ff
0,       2816,       2816,     1536,     1114, 0x0734390b
0,       4352,       4352,     1536,     1114, 0xa6e33728
0,       5888,       5888,     1536,     1116, 0xb0c824f6
0,       7424,       7424,     1536,     1114, 0x03e61900
0,       8960,       8960,     1536,     1114, 0x2cf52596
0,      10496,      10496,     1536,     1114, 0x32933ad6
0,      12032,      12032,       64,     1116, 0x28282160, S=1, Skip Samples,       10, 0x049900c5
